 <svg
      width="40"
      height="28"
      viewBox="0 0 40 28"
      fill="none"
      xmlns="http://www.w3.org/2000/svg"
    >
      <path
        d="M9.71316 15.5222L1.42311 22.4628C1.38342 22.4932 1.33051 22.4889 1.29523 22.4541L0.386852 21.4024C0.355985 21.3633 0.360396 21.3111 0.395673 21.2763L8.68572 14.3358C8.72541 14.3054 8.77832 14.3097 8.81359 14.3445L9.72198 15.3962C9.75725 15.4353 9.75284 15.4918 9.71316 15.5222Z"
        fill="#FC9828"
      />
      <path
        d="M13.8059 20.2722L5.51588 27.2128C5.47619 27.2432 5.42328 27.2389 5.38801 27.2041L4.47963 26.1524C4.44876 26.1133 4.45317 26.0611 4.48845 26.0263L12.7785 19.0858C12.8182 19.0554 12.8711 19.0597 12.9063 19.0945L13.8147 20.1462C13.85 20.181 13.8456 20.2375 13.8059 20.2722Z"
        fill="#FC9828"
      />
      <path
        d="M11.759 17.8941L1.05689 26.8512C1.01721 26.8816 0.964295 26.8772 0.929018 26.8425L0.0206439 25.7907C-0.0102232 25.7516 -0.00581848 25.6995 0.0294582 25.6647L10.7315 16.7076C10.7712 16.6772 10.8241 16.6815 10.8594 16.7163L11.7678 17.768C11.8031 17.8071 11.7987 17.8636 11.759 17.8941Z"
        fill="#FC9828"
      />
      <path
        d="M21.8936 6.69541L6.53504 11.7324C6.29251 11.815 6.12936 12.0497 6.15141 12.3018C6.16904 12.5582 6.36307 12.7668 6.61441 12.8102L14.5473 14.1836L15.4336 22.0759C15.4601 22.328 15.6629 22.5322 15.9186 22.567C16.0906 22.5931 16.2626 22.5322 16.3817 22.4236C16.439 22.3714 16.4875 22.3019 16.5184 22.228L22.5948 7.43858C22.6786 7.23432 22.6345 7.00832 22.4845 6.84752C22.3346 6.68672 22.1009 6.62588 21.8936 6.69541Z"
        fill="#FC9828"
      />
      <path
        d="M38.1725 7.64713C36.9664 6.64082 35.0691 6.69315 33.9398 7.76789C33.2667 8.4079 33.0138 9.26931 33.1809 10.0744L28.212 11.6643C28.0719 11.451 27.8912 11.2497 27.6789 11.0686C27.3898 10.8271 27.0601 10.6459 26.7122 10.5252L27.9228 5.51778C28.7676 5.554 29.6304 5.27224 30.2537 4.68052C31.3831 3.60578 31.3243 1.91518 30.1182 0.908865C28.9121 -0.0974471 27.0149 -0.0451176 25.8856 1.02962C24.7562 2.10436 24.815 3.79497 26.0211 4.80128C26.3012 5.03475 26.6128 5.21186 26.9471 5.32859L25.732 10.3481C24.9008 10.3239 24.0606 10.6057 23.4463 11.1893C22.3169 12.2641 22.3757 13.9547 23.5818 14.961C24.7879 15.9673 26.6851 15.915 27.8144 14.8403C28.5011 14.1882 28.7495 13.3107 28.5688 12.4935L33.5242 10.9076C33.6688 11.137 33.854 11.3463 34.0798 11.5355C35.286 12.5418 37.1832 12.4895 38.3125 11.4148C39.4373 10.344 39.3786 8.65345 38.1725 7.64713ZM26.7032 4.15322C25.8991 3.481 25.8585 2.35393 26.6128 1.63744C27.3672 0.920943 28.6321 0.884714 29.4361 1.55693C30.2402 2.22915 30.2808 3.35622 29.5265 4.07271C28.7721 4.7892 27.5073 4.82543 26.7032 4.15322ZM27.0871 14.2324C26.3328 14.9489 25.0679 14.9852 24.2639 14.3129C23.4598 13.6407 23.4192 12.5137 24.1735 11.7972C24.9279 11.0807 26.1927 11.0444 26.9968 11.7167C27.8009 12.3889 27.837 13.5159 27.0871 14.2324ZM37.5807 10.811C36.8263 11.5275 35.5615 11.5637 34.7574 10.8915C33.9534 10.2193 33.9127 9.0922 34.6671 8.3757C35.4215 7.65921 36.6863 7.62298 37.4904 8.2952C38.2944 8.96741 38.3351 10.0945 37.5807 10.811Z"
        fill="black"
      />
    </svg>